<?xml version="1.0" encoding="UTF-8" standalone="no"?>
<!DOCTYPE svg PUBLIC "-//W3C//DTD SVG 1.1//EN"
 "http://www.w3.org/Graphics/SVG/1.1/DTD/svg11.dtd">
<!-- Generated by graphviz version 2.43.0 (0)
 -->
<!-- Title: G Pages: 1 -->
<svg width="465pt" height="292pt"
 viewBox="0.00 0.00 465.00 292.00" xmlns="http://www.w3.org/2000/svg" xmlns:xlink="http://www.w3.org/1999/xlink">
<g id="graph0" class="graph" transform="scale(1 1) rotate(0) translate(4 288)">
<title>G</title>
<polygon fill="white" stroke="transparent" points="-4,4 -4,-288 461,-288 461,4 -4,4"/>
<g id="clust1" class="cluster">
<title>cluster_validation</title>
<polygon fill="none" stroke="black" stroke-dasharray="5,2" points="8,-8 8,-276 243,-276 243,-8 8,-8"/>
</g>
<g id="clust2" class="cluster">
<title>cluster_pipeline</title>
<polygon fill="none" stroke="black" stroke-dasharray="5,2" points="251,-8 251,-204 449,-204 449,-8 251,-8"/>
</g>
<!-- validation -->
<g id="node1" class="node">
<title>validation</title>
<polygon fill="none" stroke="black" stroke-dasharray="5,2" points="234.5,-52 147.5,-52 147.5,-16 234.5,-16 234.5,-52"/>
<text text-anchor="middle" x="191" y="-30.3" font-family="Times,serif" font-size="14.00">validation</text>
</g>
<!-- dontpanic -->
<g id="node2" class="node">
<title>dontpanic</title>
<ellipse fill="none" stroke="black" cx="73" cy="-34" rx="56.59" ry="18"/>
<text text-anchor="middle" x="73" y="-30.3" font-family="Times,serif" font-size="14.00">dontpanic</text>
</g>
<!-- entity -->
<g id="node3" class="node">
<title>entity</title>
<ellipse fill="none" stroke="black" cx="73" cy="-106" rx="38.19" ry="18"/>
<text text-anchor="middle" x="73" y="-102.3" font-family="Times,serif" font-size="14.00">entity</text>
</g>
<!-- dontpanic&#45;&gt;entity -->
<g id="edge1" class="edge">
<title>dontpanic&#45;&gt;entity</title>
<path fill="none" stroke="black" stroke-dasharray="5,2" d="M73,-52.3C73,-60.02 73,-69.29 73,-77.89"/>
<polygon fill="black" stroke="black" points="69.5,-77.9 73,-87.9 76.5,-77.9 69.5,-77.9"/>
</g>
<!-- entities -->
<g id="node4" class="node">
<title>entities</title>
<ellipse fill="none" stroke="black" cx="73" cy="-178" rx="46.29" ry="18"/>
<text text-anchor="middle" x="73" y="-174.3" font-family="Times,serif" font-size="14.00">entities</text>
</g>
<!-- entity&#45;&gt;entities -->
<g id="edge2" class="edge">
<title>entity&#45;&gt;entities</title>
<path fill="none" stroke="black" stroke-dasharray="5,2" d="M73,-124.3C73,-132.02 73,-141.29 73,-149.89"/>
<polygon fill="black" stroke="black" points="69.5,-149.9 73,-159.9 76.5,-149.9 69.5,-149.9"/>
</g>
<!-- migration -->
<g id="node5" class="node">
<title>migration</title>
<ellipse fill="none" stroke="black" cx="73" cy="-250" rx="55.79" ry="18"/>
<text text-anchor="middle" x="73" y="-246.3" font-family="Times,serif" font-size="14.00">migration</text>
</g>
<!-- entities&#45;&gt;migration -->
<g id="edge3" class="edge">
<title>entities&#45;&gt;migration</title>
<path fill="none" stroke="black" stroke-dasharray="5,2" d="M73,-196.3C73,-204.02 73,-213.29 73,-221.89"/>
<polygon fill="black" stroke="black" points="69.5,-221.9 73,-231.9 76.5,-221.9 69.5,-221.9"/>
</g>
<!-- pipeline -->
<g id="node6" class="node">
<title>pipeline</title>
<polygon fill="none" stroke="black" stroke-dasharray="5,2" points="441,-52 367,-52 367,-16 441,-16 441,-52"/>
<text text-anchor="middle" x="404" y="-30.3" font-family="Times,serif" font-size="14.00">pipeline</text>
</g>
<!-- staging -->
<g id="node7" class="node">
<title>staging</title>
<ellipse fill="none" stroke="black" cx="304" cy="-34" rx="45.49" ry="18"/>
<text text-anchor="middle" x="304" y="-30.3" font-family="Times,serif" font-size="14.00">staging</text>
</g>
<!-- semantic -->
<g id="node8" class="node">
<title>semantic</title>
<ellipse fill="none" stroke="black" cx="313" cy="-106" rx="52.79" ry="18"/>
<text text-anchor="middle" x="313" y="-102.3" font-family="Times,serif" font-size="14.00">semantic</text>
</g>
<!-- staging&#45;&gt;semantic -->
<g id="edge4" class="edge">
<title>staging&#45;&gt;semantic</title>
<path fill="none" stroke="black" stroke-dasharray="5,2" d="M306.22,-52.3C307.22,-60.02 308.41,-69.29 309.51,-77.89"/>
<polygon fill="black" stroke="black" points="306.05,-78.42 310.8,-87.9 313,-77.53 306.05,-78.42"/>
</g>
<!-- analytical -->
<g id="node9" class="node">
<title>analytical</title>
<ellipse fill="none" stroke="black" cx="315" cy="-178" rx="55.79" ry="18"/>
<text text-anchor="middle" x="315" y="-174.3" font-family="Times,serif" font-size="14.00">analytical</text>
</g>
<!-- semantic&#45;&gt;analytical -->
<g id="edge5" class="edge">
<title>semantic&#45;&gt;analytical</title>
<path fill="none" stroke="black" stroke-dasharray="5,2" d="M313.49,-124.3C313.71,-132.02 313.98,-141.29 314.23,-149.89"/>
<polygon fill="black" stroke="black" points="310.73,-150 314.51,-159.9 317.72,-149.8 310.73,-150"/>
</g>
</g>
</svg>
