<?xml version="1.0" encoding="UTF-8" standalone="no"?>
<!DOCTYPE svg PUBLIC "-//W3C//DTD SVG 1.1//EN"
 "http://www.w3.org/Graphics/SVG/1.1/DTD/svg11.dtd">
<!-- Generated by graphviz version 2.43.0 (0)
 -->
<!-- Title: G Pages: 1 -->
<svg width="667pt" height="292pt"
 viewBox="0.00 0.00 667.00 292.00" xmlns="http://www.w3.org/2000/svg" xmlns:xlink="http://www.w3.org/1999/xlink">
<g id="graph0" class="graph" transform="scale(1 1) rotate(0) translate(4 288)">
<title>G</title>
<polygon fill="white" stroke="transparent" points="-4,4 -4,-288 663,-288 663,4 -4,4"/>
<g id="clust1" class="cluster">
<title>cluster_analysis</title>
<polygon fill="none" stroke="black" stroke-dasharray="5,2" points="8,-8 8,-132 202,-132 202,-8 8,-8"/>
</g>
<g id="clust2" class="cluster">
<title>cluster_validation</title>
<polygon fill="none" stroke="black" stroke-dasharray="5,2" points="210,-8 210,-276 445,-276 445,-8 210,-8"/>
</g>
<g id="clust3" class="cluster">
<title>cluster_pipeline</title>
<polygon fill="none" stroke="black" stroke-dasharray="5,2" points="453,-8 453,-204 651,-204 651,-8 453,-8"/>
</g>
<!-- analysis -->
<g id="node1" class="node">
<title>analysis</title>
<polygon fill="none" stroke="black" stroke-dasharray="5,2" points="194,-52 120,-52 120,-16 194,-16 194,-52"/>
<text text-anchor="middle" x="157" y="-30.3" font-family="Times,serif" font-size="14.00">analysis</text>
</g>
<!-- giveadamn -->
<g id="node2" class="node">
<title>giveadamn</title>
<ellipse fill="none" stroke="black" cx="78" cy="-106" rx="61.99" ry="18"/>
<text text-anchor="middle" x="78" y="-102.3" font-family="Times,serif" font-size="14.00">give&#45;a&#45;dam</text>
</g>
<!-- gallery -->
<g id="node3" class="node">
<title>gallery</title>
<ellipse fill="none" stroke="black" cx="59" cy="-34" rx="42.79" ry="18"/>
<text text-anchor="middle" x="59" y="-30.3" font-family="Times,serif" font-size="14.00">gallery</text>
</g>
<!-- gallery&#45;&gt;giveadamn -->
<g id="edge1" class="edge">
<title>gallery&#45;&gt;giveadamn</title>
<path fill="none" stroke="black" stroke-dasharray="5,2" d="M63.6,-51.95C65.71,-59.74 68.28,-69.18 70.65,-77.92"/>
<polygon fill="black" stroke="black" points="67.31,-78.99 73.31,-87.72 74.07,-77.16 67.31,-78.99"/>
</g>
<!-- validation -->
<g id="node4" class="node">
<title>validation</title>
<polygon fill="none" stroke="black" stroke-dasharray="5,2" points="436.5,-52 349.5,-52 349.5,-16 436.5,-16 436.5,-52"/>
<text text-anchor="middle" x="393" y="-30.3" font-family="Times,serif" font-size="14.00">validation</text>
</g>
<!-- dontpanic -->
<g id="node5" class="node">
<title>dontpanic</title>
<ellipse fill="none" stroke="black" cx="275" cy="-34" rx="56.59" ry="18"/>
<text text-anchor="middle" x="275" y="-30.3" font-family="Times,serif" font-size="14.00">dontpanic</text>
</g>
<!-- entity -->
<g id="node6" class="node">
<title>entity</title>
<ellipse fill="none" stroke="black" cx="275" cy="-106" rx="38.19" ry="18"/>
<text text-anchor="middle" x="275" y="-102.3" font-family="Times,serif" font-size="14.00">entity</text>
</g>
<!-- dontpanic&#45;&gt;entity -->
<g id="edge2" class="edge">
<title>dontpanic&#45;&gt;entity</title>
<path fill="none" stroke="black" stroke-dasharray="5,2" d="M275,-52.3C275,-60.02 275,-69.29 275,-77.89"/>
<polygon fill="black" stroke="black" points="271.5,-77.9 275,-87.9 278.5,-77.9 271.5,-77.9"/>
</g>
<!-- entities -->
<g id="node7" class="node">
<title>entities</title>
<ellipse fill="none" stroke="black" cx="275" cy="-178" rx="46.29" ry="18"/>
<text text-anchor="middle" x="275" y="-174.3" font-family="Times,serif" font-size="14.00">entities</text>
</g>
<!-- entity&#45;&gt;entities -->
<g id="edge3" class="edge">
<title>entity&#45;&gt;entities</title>
<path fill="none" stroke="black" stroke-dasharray="5,2" d="M275,-124.3C275,-132.02 275,-141.29 275,-149.89"/>
<polygon fill="black" stroke="black" points="271.5,-149.9 275,-159.9 278.5,-149.9 271.5,-149.9"/>
</g>
<!-- migration -->
<g id="node8" class="node">
<title>migration</title>
<ellipse fill="none" stroke="black" cx="275" cy="-250" rx="55.79" ry="18"/>
<text text-anchor="middle" x="275" y="-246.3" font-family="Times,serif" font-size="14.00">migration</text>
</g>
<!-- entities&#45;&gt;migration -->
<g id="edge4" class="edge">
<title>entities&#45;&gt;migration</title>
<path fill="none" stroke="black" stroke-dasharray="5,2" d="M275,-196.3C275,-204.02 275,-213.29 275,-221.89"/>
<polygon fill="black" stroke="black" points="271.5,-221.9 275,-231.9 278.5,-221.9 271.5,-221.9"/>
</g>
<!-- pipeline -->
<g id="node9" class="node">
<title>pipeline</title>
<polygon fill="none" stroke="black" stroke-dasharray="5,2" points="643,-52 569,-52 569,-16 643,-16 643,-52"/>
<text text-anchor="middle" x="606" y="-30.3" font-family="Times,serif" font-size="14.00">pipeline</text>
</g>
<!-- staging -->
<g id="node10" class="node">
<title>staging</title>
<ellipse fill="none" stroke="black" cx="506" cy="-34" rx="45.49" ry="18"/>
<text text-anchor="middle" x="506" y="-30.3" font-family="Times,serif" font-size="14.00">staging</text>
</g>
<!-- semantic -->
<g id="node11" class="node">
<title>semantic</title>
<ellipse fill="none" stroke="black" cx="515" cy="-106" rx="52.79" ry="18"/>
<text text-anchor="middle" x="515" y="-102.3" font-family="Times,serif" font-size="14.00">semantic</text>
</g>
<!-- staging&#45;&gt;semantic -->
<g id="edge5" class="edge">
<title>staging&#45;&gt;semantic</title>
<path fill="none" stroke="black" stroke-dasharray="5,2" d="M508.22,-52.3C509.22,-60.02 510.41,-69.29 511.51,-77.89"/>
<polygon fill="black" stroke="black" points="508.05,-78.42 512.8,-87.9 515,-77.53 508.05,-78.42"/>
</g>
<!-- analytical -->
<g id="node12" class="node">
<title>analytical</title>
<ellipse fill="none" stroke="black" cx="517" cy="-178" rx="55.79" ry="18"/>
<text text-anchor="middle" x="517" y="-174.3" font-family="Times,serif" font-size="14.00">analytical</text>
</g>
<!-- semantic&#45;&gt;analytical -->
<g id="edge6" class="edge">
<title>semantic&#45;&gt;analytical</title>
<path fill="none" stroke="black" stroke-dasharray="5,2" d="M515.49,-124.3C515.71,-132.02 515.98,-141.29 516.23,-149.89"/>
<polygon fill="black" stroke="black" points="512.73,-150 516.51,-159.9 519.72,-149.8 512.73,-150"/>
</g>
</g>
</svg>
