<?xml version="1.0" encoding="UTF-8" standalone="no"?>
<!DOCTYPE svg PUBLIC "-//W3C//DTD SVG 1.1//EN"
 "http://www.w3.org/Graphics/SVG/1.1/DTD/svg11.dtd">
<!-- Generated by graphviz version 2.43.0 (0)
 -->
<!-- Title: G Pages: 1 -->
<svg width="432pt" height="660pt"
 viewBox="0.00 0.00 432.00 659.62" xmlns="http://www.w3.org/2000/svg" xmlns:xlink="http://www.w3.org/1999/xlink">
<g id="graph0" class="graph" transform="scale(0.78 0.78) rotate(0) translate(4 846.48)">
<title>G</title>
<polygon fill="#f5ecd9" stroke="transparent" points="-4,4 -4,-846.48 553,-846.48 553,4 -4,4"/>
<g id="clust1" class="cluster">
<title>cluster_representational</title>
<polygon fill="#f5ecd9" stroke="black" stroke-dasharray="1,5" points="94,-8 94,-206 529,-206 529,-8 94,-8"/>
</g>
<g id="clust2" class="cluster">
<title>cluster_sis</title>
<polygon fill="#f5ecd9" stroke="black" stroke-dasharray="1,5" points="8,-225 8,-834.48 529,-834.48 529,-225 8,-225"/>
</g>
<g id="clust3" class="cluster">
<title>cluster_analysis</title>
<polygon fill="#f5ecd9" stroke="black" stroke-dasharray="5,2" points="312,-701.48 312,-826.48 506,-826.48 506,-701.48 312,-701.48"/>
</g>
<g id="clust4" class="cluster">
<title>cluster_validation</title>
<polygon fill="#f5ecd9" stroke="black" stroke-dasharray="5,2" points="32,-555.48 32,-826.48 267,-826.48 267,-555.48 32,-555.48"/>
</g>
<g id="clust5" class="cluster">
<title>cluster_pipeline</title>
<polygon fill="#f5ecd9" stroke="black" stroke-dasharray="5,2" points="275,-383.29 275,-680.48 509,-680.48 509,-383.29 275,-383.29"/>
</g>
<g id="clust6" class="cluster">
<title>cluster_humans</title>
<polygon fill="#f5ecd9" stroke="black" stroke-dasharray="5,2" points="80,-233 80,-461.48 267,-461.48 267,-233 80,-233"/>
</g>
<!-- repl -->
<g id="node1" class="node">
<title>repl</title>
<polygon fill="none" stroke="black" stroke-dasharray="1,5" points="520.5,-52 385.5,-52 385.5,-16 520.5,-16 520.5,-52"/>
<text text-anchor="middle" x="453" y="-30.3" font-family="Times,serif" font-size="14.00">representational</text>
</g>
<!-- repd -->
<g id="node2" class="node">
<title>repd</title>
<polygon fill="#6b7b3a" fill-opacity="0.701961" stroke="black" points="475,-125 429.08,-107 475,-89 520.92,-107 475,-125"/>
<text text-anchor="middle" x="475" y="-103.3" font-family="Times,serif" font-size="14.00">repd</text>
</g>
<!-- repr -->
<g id="node4" class="node">
<title>repr</title>
<polygon fill="#cc5500" fill-opacity="0.701961" stroke="black" points="145,-198 101.6,-180 145,-162 188.4,-180 145,-198"/>
<text text-anchor="middle" x="145" y="-176.3" font-family="Times,serif" font-size="14.00">repr</text>
</g>
<!-- repd&#45;&gt;repr -->
<g id="edge2" class="edge">
<title>repd&#45;&gt;repr</title>
<path fill="none" stroke="#6b7b3a" stroke-dasharray="1,5" d="M450.3,-115.47C439.51,-118.61 426.68,-122.18 415,-125 333.31,-144.71 236.51,-162.81 183.86,-172.22"/>
<polygon fill="#6b7b3a" stroke="#6b7b3a" points="183.17,-168.79 173.93,-173.99 184.39,-175.68 183.17,-168.79"/>
</g>
<!-- raw -->
<g id="node16" class="node">
<title>raw</title>
<polygon fill="#6b7b3a" fill-opacity="0.701961" stroke="black" points="409.08,-409.29 377.54,-427.29 314.46,-427.29 282.92,-409.29 314.46,-391.29 377.54,-391.29 409.08,-409.29"/>
<text text-anchor="middle" x="346" y="-405.59" font-family="Times,serif" font-size="14.00">data&#45;raw/</text>
</g>
<!-- repd&#45;&gt;raw -->
<g id="edge22" class="edge">
<title>repd&#45;&gt;raw</title>
<path fill="none" stroke="black" stroke-dasharray="1,5" d="M468.6,-122.89C448.09,-170.65 383.75,-320.41 357.41,-381.72"/>
<polygon fill="black" stroke="black" points="354.11,-380.53 353.38,-391.1 360.55,-383.3 354.11,-380.53"/>
</g>
<!-- repn -->
<g id="node3" class="node">
<title>repn</title>
<polygon fill="#cc5500" fill-opacity="0.701961" stroke="black" points="322,-52 276.08,-34 322,-16 367.92,-34 322,-52"/>
<text text-anchor="middle" x="322" y="-30.3" font-family="Times,serif" font-size="14.00">repn</text>
</g>
<!-- repn&#45;&gt;repd -->
<g id="edge1" class="edge">
<title>repn&#45;&gt;repd</title>
<path fill="none" stroke="#cc5500" stroke-dasharray="1,5" stroke-opacity="0.701961" d="M342,-44.28C368.46,-56.56 415.29,-78.29 445.73,-92.42"/>
<polygon fill="#cc5500" fill-opacity="0.701961" stroke="#cc5500" stroke-opacity="0.701961" points="444.45,-95.68 454.99,-96.72 447.4,-89.33 444.45,-95.68"/>
</g>
<!-- repn&#45;&gt;repr -->
<g id="edge3" class="edge">
<title>repn&#45;&gt;repr</title>
<path fill="none" stroke="#cc5500" stroke-dasharray="1,5" stroke-opacity="0.701961" d="M289.38,-39.36C239.59,-46.76 148.35,-63.5 129,-89 114.39,-108.25 122.83,-136.44 132.05,-156.13"/>
<polygon fill="#cc5500" fill-opacity="0.701961" stroke="#cc5500" stroke-opacity="0.701961" points="129.06,-157.95 136.69,-165.29 135.3,-154.79 129.06,-157.95"/>
<text text-anchor="middle" x="274.5" y="-103.3" font-family="Times,serif" font-size="14.00" fill="#cc5500" fill-opacity="0.701961">giveadamn represents Garima&#39;s analysis</text>
</g>
<!-- giveadamn -->
<g id="node7" class="node">
<title>giveadamn</title>
<ellipse fill="#cc5500" fill-opacity="0.701961" stroke="black" cx="409" cy="-800.48" rx="61.99" ry="18"/>
<text text-anchor="middle" x="409" y="-796.78" font-family="Times,serif" font-size="14.00">giveadamn</text>
</g>
<!-- repn&#45;&gt;giveadamn -->
<g id="edge21" class="edge">
<title>repn&#45;&gt;giveadamn</title>
<path fill="none" stroke="black" stroke-dasharray="1,5" d="M346,-42.77C355.6,-45.79 366.79,-49.19 377,-52 454.25,-73.26 549,-25.88 549,-106 549,-106 549,-106 549,-728.48 549,-764.48 511.73,-782.23 475.65,-790.98"/>
<polygon fill="black" stroke="black" points="474.55,-787.64 465.54,-793.22 476.06,-794.48 474.55,-787.64"/>
</g>
<!-- human -->
<g id="node19" class="node">
<title>human</title>
<polygon fill="none" stroke="black" stroke-dasharray="5,2" points="153.5,-302.55 88.5,-302.55 88.5,-266.55 153.5,-266.55 153.5,-302.55"/>
<text text-anchor="middle" x="121" y="-280.85" font-family="Times,serif" font-size="14.00">human</text>
</g>
<!-- repr&#45;&gt;human -->
<g id="edge20" class="edge">
<title>repr&#45;&gt;human</title>
<path fill="none" stroke="#6b7b3a" stroke-dasharray="1,5" d="M141.35,-196.57C137.64,-212.46 131.8,-237.42 127.32,-256.53"/>
<polygon fill="#6b7b3a" stroke="#6b7b3a" points="123.87,-255.92 125,-266.45 130.69,-257.52 123.87,-255.92"/>
</g>
<!-- sis -->
<g id="node5" class="node">
<title>sis</title>
<polygon fill="none" stroke="black" stroke-dasharray="1,5" points="70,-302.55 16,-302.55 16,-266.55 70,-266.55 70,-302.55"/>
<text text-anchor="middle" x="43" y="-280.85" font-family="Times,serif" font-size="14.00">sis</text>
</g>
<!-- analysis -->
<g id="node6" class="node">
<title>analysis</title>
<polygon fill="none" stroke="black" stroke-dasharray="5,2" points="498,-745.48 424,-745.48 424,-709.48 498,-709.48 498,-745.48"/>
<text text-anchor="middle" x="461" y="-723.78" font-family="Times,serif" font-size="14.00">analysis</text>
</g>
<!-- gallery -->
<g id="node8" class="node">
<title>gallery</title>
<ellipse fill="none" stroke="black" cx="363" cy="-727.48" rx="42.79" ry="18"/>
<text text-anchor="middle" x="363" y="-723.78" font-family="Times,serif" font-size="14.00">gallery</text>
</g>
<!-- gallery&#45;&gt;giveadamn -->
<g id="edge4" class="edge">
<title>gallery&#45;&gt;giveadamn</title>
<path fill="none" stroke="black" stroke-dasharray="5,2" d="M373.67,-744.95C379.28,-753.61 386.27,-764.41 392.56,-774.11"/>
<polygon fill="black" stroke="black" points="389.69,-776.12 398.07,-782.61 395.57,-772.32 389.69,-776.12"/>
</g>
<!-- dontpanic -->
<g id="node9" class="node">
<title>dontpanic</title>
<ellipse fill="#6b7b3a" fill-opacity="0.701961" stroke="black" cx="202" cy="-581.48" rx="56.59" ry="18"/>
<text text-anchor="middle" x="202" y="-577.78" font-family="Times,serif" font-size="14.00">dontpanic</text>
</g>
<!-- dontpanic&#45;&gt;giveadamn -->
<g id="edge23" class="edge">
<title>dontpanic&#45;&gt;giveadamn</title>
<path fill="none" stroke="black" stroke-dasharray="1,5" d="M212.63,-599.34C237.49,-638.62 298.3,-733.83 311,-745.48 326.72,-759.91 347,-771.9 365.02,-780.89"/>
<polygon fill="black" stroke="black" points="363.68,-784.13 374.21,-785.31 366.71,-777.82 363.68,-784.13"/>
</g>
<!-- entity -->
<g id="node10" class="node">
<title>entity</title>
<ellipse fill="#6b7b3a" fill-opacity="0.701961" stroke="black" cx="189" cy="-654.48" rx="38.19" ry="18"/>
<text text-anchor="middle" x="189" y="-650.78" font-family="Times,serif" font-size="14.00">entity</text>
</g>
<!-- dontpanic&#45;&gt;entity -->
<g id="edge5" class="edge">
<title>dontpanic&#45;&gt;entity</title>
<path fill="none" stroke="black" stroke-dasharray="5,2" d="M198.85,-599.67C197.38,-607.69 195.6,-617.44 193.96,-626.42"/>
<polygon fill="black" stroke="black" points="190.48,-625.99 192.12,-636.46 197.36,-627.25 190.48,-625.99"/>
</g>
<!-- entities -->
<g id="node11" class="node">
<title>entities</title>
<ellipse fill="#cc5500" fill-opacity="0.701961" stroke="black" cx="213" cy="-727.48" rx="46.29" ry="18"/>
<text text-anchor="middle" x="213" y="-723.78" font-family="Times,serif" font-size="14.00">entities</text>
</g>
<!-- entity&#45;&gt;entities -->
<g id="edge6" class="edge">
<title>entity&#45;&gt;entities</title>
<path fill="none" stroke="black" stroke-dasharray="5,2" d="M194.69,-672.31C197.46,-680.5 200.85,-690.55 203.96,-699.75"/>
<polygon fill="black" stroke="black" points="200.67,-700.93 207.19,-709.29 207.3,-698.69 200.67,-700.93"/>
</g>
<!-- migration -->
<g id="node13" class="node">
<title>migration</title>
<ellipse fill="none" stroke="black" cx="203" cy="-800.48" rx="55.79" ry="18"/>
<text text-anchor="middle" x="203" y="-796.78" font-family="Times,serif" font-size="14.00">migration</text>
</g>
<!-- entities&#45;&gt;migration -->
<g id="edge7" class="edge">
<title>entities&#45;&gt;migration</title>
<path fill="none" stroke="black" stroke-dasharray="5,2" d="M210.58,-745.67C209.45,-753.69 208.08,-763.44 206.81,-772.42"/>
<polygon fill="black" stroke="black" points="203.33,-772.07 205.4,-782.46 210.26,-773.04 203.33,-772.07"/>
</g>
<!-- validation -->
<g id="node12" class="node">
<title>validation</title>
<polygon fill="none" stroke="black" stroke-dasharray="5,2" points="127.5,-599.48 40.5,-599.48 40.5,-563.48 127.5,-563.48 127.5,-599.48"/>
<text text-anchor="middle" x="84" y="-577.78" font-family="Times,serif" font-size="14.00">validation</text>
</g>
<!-- source -->
<g id="node14" class="node">
<title>source</title>
<ellipse fill="#cc5500" fill-opacity="0.701961" stroke="black" cx="335" cy="-508.48" rx="41.69" ry="18"/>
<text text-anchor="middle" x="335" y="-504.78" font-family="Times,serif" font-size="14.00">source</text>
</g>
<!-- source&#45;&gt;entity -->
<g id="edge15" class="edge">
<title>source&#45;&gt;entity</title>
<path fill="none" stroke="black" stroke-dasharray="1,5" d="M293.18,-509.39C217.9,-510.22 64.33,-516.73 31,-555.48 18.25,-570.31 19.63,-583.58 31,-599.48 55.74,-634.08 104.01,-646.76 140.72,-651.28"/>
<polygon fill="black" stroke="black" points="140.42,-654.77 150.74,-652.35 141.17,-647.81 140.42,-654.77"/>
</g>
<!-- source&#45;&gt;entities -->
<g id="edge16" class="edge">
<title>source&#45;&gt;entities</title>
<path fill="none" stroke="black" stroke-dasharray="1,5" d="M316.27,-524.62C306.85,-532.96 295.81,-543.95 288,-555.48 279.57,-567.94 242.26,-666.8 236,-680.48 233.01,-687.03 229.62,-694.02 226.38,-700.52"/>
<polygon fill="black" stroke="black" points="223.18,-699.08 221.8,-709.58 229.43,-702.23 223.18,-699.08"/>
</g>
<!-- semantic -->
<g id="node17" class="node">
<title>semantic</title>
<ellipse fill="none" stroke="black" cx="350" cy="-581.48" rx="52.79" ry="18"/>
<text text-anchor="middle" x="350" y="-577.78" font-family="Times,serif" font-size="14.00">semantic</text>
</g>
<!-- source&#45;&gt;semantic -->
<g id="edge9" class="edge">
<title>source&#45;&gt;semantic</title>
<path fill="none" stroke="#cc5500" stroke-dasharray="1,5" stroke-opacity="0.701961" d="M338.63,-526.67C340.33,-534.69 342.38,-544.44 344.28,-553.42"/>
<polygon fill="#cc5500" fill-opacity="0.701961" stroke="#cc5500" stroke-opacity="0.701961" points="340.91,-554.4 346.4,-563.46 347.76,-552.95 340.91,-554.4"/>
</g>
<!-- pipeline -->
<g id="node15" class="node">
<title>pipeline</title>
<polygon fill="none" stroke="black" stroke-dasharray="5,2" points="501,-427.29 427,-427.29 427,-391.29 501,-391.29 501,-427.29"/>
<text text-anchor="middle" x="464" y="-405.59" font-family="Times,serif" font-size="14.00">pipeline</text>
</g>
<!-- raw&#45;&gt;source -->
<g id="edge8" class="edge">
<title>raw&#45;&gt;source</title>
<path fill="none" stroke="#6b7b3a" stroke-dasharray="1,5" d="M344.03,-427.67C342.39,-442.18 340.02,-463.13 338.12,-479.93"/>
<polygon fill="#6b7b3a" stroke="#6b7b3a" points="334.6,-479.93 336.95,-490.26 341.55,-480.72 334.6,-479.93"/>
</g>
<!-- semantic&#45;&gt;entities -->
<g id="edge17" class="edge">
<title>semantic&#45;&gt;entities</title>
<path fill="none" stroke="black" stroke-dasharray="1,5" d="M333.02,-598.61C322.16,-609.13 307.92,-623.31 296,-636.48 274.81,-659.9 272.67,-668.51 251,-691.48 247.15,-695.56 242.92,-699.74 238.72,-703.71"/>
<polygon fill="black" stroke="black" points="236.24,-701.24 231.28,-710.6 241,-706.38 236.24,-701.24"/>
</g>
<!-- analytical -->
<g id="node18" class="node">
<title>analytical</title>
<ellipse fill="none" stroke="black" cx="361" cy="-654.48" rx="55.79" ry="18"/>
<text text-anchor="middle" x="361" y="-650.78" font-family="Times,serif" font-size="14.00">analytical</text>
</g>
<!-- semantic&#45;&gt;analytical -->
<g id="edge10" class="edge">
<title>semantic&#45;&gt;analytical</title>
<path fill="none" stroke="#cc5500" stroke-dasharray="5,2" stroke-opacity="0.701961" d="M352.66,-599.67C353.91,-607.69 355.42,-617.44 356.81,-626.42"/>
<polygon fill="#cc5500" fill-opacity="0.701961" stroke="#cc5500" stroke-opacity="0.701961" points="353.37,-627.11 358.36,-636.46 360.29,-626.04 353.37,-627.11"/>
</g>
<!-- analytical&#45;&gt;analysis -->
<g id="edge12" class="edge">
<title>analytical&#45;&gt;analysis</title>
<path fill="none" stroke="black" stroke-dasharray="1,5" d="M383.19,-671.24C396.47,-680.67 413.58,-692.82 428.37,-703.32"/>
<polygon fill="black" stroke="black" points="426.59,-706.34 436.77,-709.28 430.64,-700.64 426.59,-706.34"/>
</g>
<!-- analytical&#45;&gt;entities -->
<g id="edge18" class="edge">
<title>analytical&#45;&gt;entities</title>
<path fill="none" stroke="black" stroke-dasharray="1,5" d="M331.05,-669.85C307.68,-681.06 275.1,-696.69 250.08,-708.69"/>
<polygon fill="black" stroke="black" points="248.41,-705.62 240.9,-713.1 251.43,-711.93 248.41,-705.62"/>
</g>
<!-- analytical&#45;&gt;migration -->
<g id="edge19" class="edge">
<title>analytical&#45;&gt;migration</title>
<path fill="none" stroke="black" stroke-dasharray="1,5" d="M341.38,-671.56C331.17,-680.16 318.63,-691.1 308,-701.48 289.1,-719.96 287.1,-727.22 268,-745.48 256.57,-756.42 243.23,-767.72 231.63,-777.14"/>
<polygon fill="black" stroke="black" points="229.14,-774.65 223.54,-783.64 233.53,-780.11 229.14,-774.65"/>
</g>
<!-- human&#45;&gt;raw -->
<g id="edge13" class="edge">
<title>human&#45;&gt;raw</title>
<path fill="none" stroke="#6b7b3a" stroke-dasharray="1,5" d="M134.26,-302.8C141.63,-311.41 151.43,-321.39 162,-328.09 205.19,-355.51 224.39,-344 271,-365.09 284.33,-371.12 298.37,-378.82 310.65,-386.03"/>
<polygon fill="#6b7b3a" stroke="#6b7b3a" points="308.87,-389.04 319.25,-391.17 312.46,-383.04 308.87,-389.04"/>
</g>
<!-- charles -->
<g id="node20" class="node">
<title>charles</title>
<ellipse fill="#6b7b3a" fill-opacity="0.701961" stroke="black" cx="215" cy="-409.29" rx="44.39" ry="44.39"/>
<text text-anchor="middle" x="215" y="-405.59" font-family="Times,serif" font-size="14.00">charles</text>
</g>
<!-- garima -->
<g id="node21" class="node">
<title>garima</title>
<ellipse fill="#cc5500" fill-opacity="0.701961" stroke="black" cx="215" cy="-284.55" rx="43.59" ry="43.59"/>
<text text-anchor="middle" x="215" y="-280.85" font-family="Times,serif" font-size="14.00">garima</text>
</g>
<!-- garima&#45;&gt;giveadamn -->
<g id="edge14" class="edge">
<title>garima&#45;&gt;giveadamn</title>
<path fill="none" stroke="#cc5500" stroke-dasharray="1,5" d="M258.36,-290.92C332.98,-301.14 480.79,-325.89 513,-365.09 543.08,-401.71 520,-424.1 520,-471.48 520,-471.48 520,-471.48 520,-728.48 520,-757.24 493.25,-774.87 466.01,-785.37"/>
<polygon fill="#cc5500" stroke="#cc5500" points="464.64,-782.14 456.4,-788.8 466.99,-788.74 464.64,-782.14"/>
</g>
<!-- garima&#45;&gt;charles -->
<g id="edge11" class="edge">
<title>garima&#45;&gt;charles</title>
<path fill="none" stroke="#6b7b3a" stroke-dasharray="1,5" d="M215,-328.13C215,-336.69 215,-345.79 215,-354.67"/>
<polygon fill="#6b7b3a" stroke="#6b7b3a" points="211.5,-354.95 215,-364.95 218.5,-354.95 211.5,-354.95"/>
</g>
</g>
</svg>
